{"title":"The Lego Movie 2014 1080p WEBRip 5_1 AAC x264-HeartAttack","uid":10195332,"size":2146247203,"categoryP":"video","categoryS":"hd___movies","magnet":"?xt=urn:btih:b4d38a95fd47fb28d82249255f388fe583e65069&amp;dn=The+Lego+Movie+2014+1080p+WEBRip+5_1+AAC+x264-HeartAttack&amp;tr=udp%3A%2F%2Ftracker.openbittorrent.com%3A80&amp;tr=udp%3A%2F%2Fopen.demonii.com%3A1337&amp;tr=udp%3A%2F%2Ftracker.coppersurfer.tk%3A6969&amp;tr=udp%3A%2F%2Fexodus.desync.com%3A6969","seeders":0,"leechers":0,"uploader":"Xetron","files":2,"time":1400685761,"description":"[img]http://i.imgur.com/uc5KSll.jpg[/img]\n\n &lt;a href=&quot;\nhttp://www.imdb.com/title/tt1490017/&quot; rel=&quot;nofollow&quot; target=&quot;_NEW&quot;&gt;\nhttp://www.imdb.com/title/tt1490017/&lt;/a&gt;\n\nEncoded From &quot;The.Lego.Movie.2014.1080p.WEB-DL.H264&quot; - Thanks\n\nGeneral\nComplete name                            : The Lego Movie 2014 1080p WEBRip 5_1 AAC x264-HeartAttack.mp4\nFormat                                   : MPEG-4\nFormat profile                           : Base Media\nCodec ID                                 : isom\nFile size                                : 2.00 GiB\nDuration                                 : 1h 40mn\nOverall bit rate mode                    : Variable\nOverall bit rate                         : 2 846 Kbps\n\nVideo\nID                                       : 1\nFormat                                   : AVC\nFormat/Info                              : Advanced Video Codec\nFormat profile                           : &lt;a class=&quot;__cf_email__&quot; href=&quot;/cdn-cgi/l/email-protection&quot; data-cfemail=&quot;d79fbeb0bf979be3f9e6&quot;&gt;[email&amp;#160;protected]&lt;/a&gt;&lt;script data-cfhash='f9e31' type=&quot;text/javascript&quot;&gt;\n/* &lt;![CDATA[ */!function(){try{var t=&quot;currentScript&quot;in document?document.currentScript:function(){for(var t=document.getElementsByTagName(&quot;script&quot;),e=t.length;e--;)if(t[e].getAttribute(&quot;data-cfhash&quot;))return t[e]}();if(t&amp;&amp;t.previousSibling){var e,r,n,i,c=t.previousSibling,a=c.getAttribute(&quot;data-cfemail&quot;);if(a){for(e=&quot;&quot;,r=parseInt(a.substr(0,2),16),n=2;a.length-n;n+=2)i=parseInt(a.substr(n,2),16)^r,e+=String.fromCharCode(i);e=document.createTextNode(e),c.parentNode.replaceChild(e,c)}t.parentNode.removeChild(t);}}catch(u){}}()/* ]]&gt; */&lt;/script&gt;\nFormat settings, CABAC                   : Yes\nFormat settings, ReFrames                : 3 frames\nCodec ID                                 : avc1\nCodec ID/Info                            : Advanced Video Coding\nDuration                                 : 1h 40mn\nBit rate mode                            : Variable\nBit rate                                 : 2 645 Kbps\nMaximum bit rate                         : 40.0 Mbps\nWidth                                    : 1 916 pixels\nHeight                                   : 798 pixels\nDisplay aspect ratio                     : 2.40:1\nFrame rate mode                          : Constant\nFrame rate                               : 23.976 fps\nColor space                              : YUV\nChroma subsampling                       : 4:2:0\nBit depth                                : 8 bits\nScan type                                : Progressive\nBits/(Pixel*Frame)                       : 0.072\nStream size                              : 1.86 GiB (93%)\nWriting library                          : x264 core 138 r2358 9e941d1\n\nAudio\nID                                       : 2\nFormat                                   : AAC\nFormat/Info                              : Advanced Audio Codec\nFormat profile                           : LC\nCodec ID                                 : 40\nDuration                                 : 1h 40mn\nBit rate mode                            : Variable\nBit rate                                 : 200 Kbps\nMaximum bit rate                         : 222 Kbps\nChannel(s)                               : 6 channels\nChannel positions                        : Front: L C R, Side: L R, LFE\nSampling rate                            : 48.0 KHz\nCompression mode                         : Lossy\nStream size                              : 144 MiB (7%)\n\n[img]http://lookpic.com/O/i2/1499/nCCrBoFe.png[/img]\n[img]http://lookpic.com/O/i2/131/hgJpeOPO.png[/img]\n[img]http://lookpic.com/O/i2/795/dTBV2Ivg.png[/img]","torrent":{"xt":"urn:btih:b4d38a95fd47fb28d82249255f388fe583e65069","amp;dn":"The+Lego+Movie+2014+1080p+WEBRip+5_1+AAC+x264-HeartAttack","amp;tr":["udp%3A%2F%2Ftracker.openbittorrent.com%3A80","udp%3A%2F%2Fopen.demonii.com%3A1337","udp%3A%2F%2Ftracker.coppersurfer.tk%3A6969","udp%3A%2F%2Fexodus.desync.com%3A6969"],"infoHash":"b4d38a95fd47fb28d82249255f388fe583e65069","infoHashBuffer":{"type":"Buffer","data":[180,211,138,149,253,71,251,40,216,34,73,37,95,56,143,229,131,230,80,105]},"announce":[],"urlList":[]}}